<svg width="24" height="24" viewBox="0 0 24 24" fill="none" xmlns="http://www.w3.org/2000/svg">
  <rect x="3" y="3" width="8" height="8" rx="1" stroke="currentColor" stroke-width="2"/>
  <rect x="13" y="3" width="8" height="8" rx="1" stroke="currentColor" stroke-width="2"/>
  <rect x="3" y="13" width="8" height="8" rx="1" stroke="currentColor" stroke-width="2"/>
  <rect x="5" y="5" width="4" height="4" fill="currentColor"/>
  <rect x="15" y="5" width="4" height="4" fill="currentColor"/>
  <rect x="5" y="15" width="4" height="4" fill="currentColor"/>
  <rect x="14" y="14" width="2" height="2" fill="currentColor"/>
  <rect x="17" y="14" width="2" height="2" fill="currentColor"/>
  <rect x="20" y="14" width="2" height="2" fill="currentColor"/>
  <rect x="14" y="17" width="2" height="2" fill="currentColor"/>
  <rect x="17" y="17" width="2" height="2" fill="currentColor"/>
  <rect x="20" y="17" width="2" height="2" fill="currentColor"/>
  <rect x="14" y="20" width="2" height="2" fill="currentColor"/>
  <rect x="17" y="20" width="2" height="2" fill="currentColor"/>
  <rect x="20" y="20" width="2" height="2" fill="currentColor"/>
</svg>
